<?xml version="1.0" encoding="UTF-8" standalone="no"?>
<!-- Created with Inkscape (http://www.inkscape.org/) -->

<svg
   width="190.89339mm"
   height="135.38788mm"
   viewBox="0 0 190.89339 135.38788"
   version="1.1"
   id="svg1"
   xmlns="http://www.w3.org/2000/svg"
   xmlns:svg="http://www.w3.org/2000/svg">
  <defs
     id="defs1" />
  <g
     id="layer1"
     transform="translate(-12.44486,-36.968526)">
    <path
       style="fill:#253806;stroke-width:0.264583"
       d="m 25.58297,172.03696 c -1.11735,-0.20325 -2.91039,-0.81757 -4.21914,-1.44556 -3.90456,-1.87354 -7.12611,-5.66726 -8.43248,-9.93017 -0.4655,-1.51901 -0.48649,-3.92161 -0.48649,-55.69479 0,-50.850472 0.0281,-54.208826 0.46607,-55.79418 1.58266,-5.728385 6.27301,-10.35758 11.95879,-11.802882 1.3918,-0.353788 11.12107,-0.400852 82.86771,-0.400852 57.6388,0 81.6987,0.08392 82.69284,0.28842 4.70571,0.967999 9.62469,5.073422 11.61956,9.697781 1.33026,3.083694 1.29223,1.37143 1.28731,57.968843 -0.005,57.83166 0.0804,54.67626 -1.56981,58.00221 -2.20957,4.45342 -5.83441,7.46324 -10.72872,8.90838 -1.50267,0.44369 -5.91403,0.47108 -82.55,0.51249 -66.54469,0.036 -81.30853,-0.0192 -82.90564,-0.30969 z m 165.45564,-7.35393 c 2.06651,-0.9642 3.87413,-2.76327 4.80909,-4.78634 l 0.74716,-1.61671 v -53.44583 c 0,-50.265628 -0.0276,-53.524551 -0.46403,-54.768749 -0.92578,-2.639372 -3.57072,-5.244364 -6.10754,-6.015302 -0.8778,-0.266761 -17.61533,-0.334698 -82.46072,-0.334698 H 26.2032 l -1.5072,0.706485 c -1.83676,0.860968 -3.63244,2.605318 -4.62818,4.495885 l -0.74379,1.412213 v 54.371876 54.37187 l 0.71085,1.3472 c 1.05234,1.99441 3.3251,3.95252 5.32472,4.58757 1.61448,0.51273 2.77159,0.51926 82.86443,0.46762 l 81.22708,-0.0524 z M 36.3976,148.54879 c -0.35944,-0.18188 -0.93548,-0.74567 -1.28009,-1.25287 -0.90516,-1.3322 -0.66563,-2.98211 0.60441,-4.16333 l 0.92455,-0.8599 h 26.47535 c 29.06786,0 27.5695,-0.0832 28.42898,1.57884 0.88669,1.71467 0.29051,3.85764 -1.28062,4.60319 -0.82475,0.39137 -3.40174,0.43218 -27.0653,0.42865 -20.38975,-0.003 -26.2978,-0.0768 -26.80728,-0.33458 z M 105,148.49999 c -1.06584,-0.46356 -1.67076,-1.62142 -1.67076,-3.19793 0,-1.0463 0.13449,-1.36471 0.89958,-2.12981 l 0.89958,-0.89958 h 3.61148 c 4.021,0 4.87374,0.24193 5.56508,1.57884 0.8867,1.71467 0.29051,3.85764 -1.28062,4.60319 -1.19042,0.56489 -6.75741,0.59632 -8.02434,0.0453 z m 22.78161,0.13297 c -0.30291,-0.12367 -0.86845,-0.60243 -1.25677,-1.06391 -0.82054,-0.97516 -0.94397,-2.48126 -0.30467,-3.71754 0.85798,-1.65915 -0.53544,-1.57884 27.39208,-1.57884 23.50254,0 25.49662,0.0344 26.20262,0.4514 1.76834,1.04458 2.03467,3.70037 0.5227,5.21244 l -0.8184,0.81845 -25.59341,0.0514 c -14.07637,0.0283 -25.84123,-0.0498 -26.14415,-0.17342 z m 16.05682,-23.09518 c -0.93892,-0.75348 -7.21414,-7.47354 -31.77794,-34.030619 -3.27422,-3.539911 -6.22102,-6.808158 -6.54844,-7.262773 -0.64515,-0.895776 -0.79303,-2.49124 -0.31388,-3.38654 0.70551,-1.31826 15.42301,-18.666068 16.191,-19.084655 0.79109,-0.431175 2.47483,-0.46302 24.48085,-0.46302 20.53782,0 23.73227,0.0522 24.40245,0.398761 0.42411,0.219318 2.28877,2.213615 4.14368,4.431771 1.85491,2.218155 5.29457,6.300237 7.64369,9.071292 2.34912,2.771055 4.40762,5.293307 4.57443,5.605002 0.50369,0.941152 0.35507,2.303457 -0.36745,3.368143 -0.36891,0.543619 -2.96852,3.447497 -5.77693,6.453069 -2.8084,3.005568 -7.53696,8.087952 -10.5079,11.294189 -17.33536,18.70827 -22.34616,24.00373 -22.91981,24.22183 -1.18263,0.44963 -2.11822,0.27073 -3.22375,-0.61645 z m -4.78397,-15.81323 c -0.97367,-2.90637 -3.44687,-10.676662 -5.89356,-18.516441 l -1.94047,-6.217708 -8.25706,-0.06992 c -4.54138,-0.03845 -8.25705,-0.0021 -8.25705,0.08052 0,0.08274 1.9943,2.300721 4.43177,4.928849 4.93216,5.31794 6.66594,7.194372 14.84881,16.07059 3.11,3.37351 5.69166,6.09653 5.73703,6.05116 0.0454,-0.0454 -0.25589,-1.09254 -0.66947,-2.32705 z m 11.21328,-11.349638 c 2.26934,-7.1906 4.12608,-13.17349 4.12608,-13.295312 0,-0.12182 -3.88227,-0.221491 -8.62727,-0.221491 -7.88563,0 -8.61295,0.03728 -8.46083,0.43371 0.0915,0.238541 1.95197,6.221431 4.1343,13.295313 4.7119,15.273328 4.20022,13.758998 4.47989,13.258478 0.12196,-0.21828 2.07848,-6.2801 4.34783,-13.470698 z m 2.87958,12.478508 c 0.63578,-0.69122 3.95139,-4.29286 7.36802,-8.00364 12.20366,-13.254352 16.10348,-17.558614 16.10348,-17.773578 0,-0.119951 -3.56769,-0.218093 -7.92819,-0.218093 -7.28084,0 -7.94822,0.03781 -8.17346,0.463021 -0.13489,0.254661 -0.96211,2.725208 -1.83826,5.490104 -1.91806,6.052878 -3.87246,12.125216 -5.59908,17.396356 -0.70309,2.14643 -1.23562,3.9026 -1.18341,3.9026 0.0522,0 0.61513,-0.56554 1.2509,-1.25677 z M 127.6709,78.354987 c 0,-0.262126 -5.13094,-8.84327 -5.28153,-8.832996 -0.13181,0.009 -5.98603,7.275931 -6.81559,8.460296 -0.3644,0.52025 -0.30224,0.525822 5.86441,0.525822 3.42799,0 6.23271,-0.06891 6.23271,-0.153122 z m 23.71725,-0.242621 c -0.29535,-0.769694 -5.31347,-8.864674 -5.49525,-8.864674 -0.1377,0 -5.05894,7.804187 -5.7144,9.061979 -0.0569,0.109141 2.4762,0.198438 5.62905,0.198438 4.97954,0 5.71252,-0.05198 5.5806,-0.395743 z m 24.69833,0.197305 c -0.004,-0.245938 -6.5782,-8.643654 -6.82766,-8.721391 -0.0993,-0.03096 -0.98229,1.33826 -1.96209,3.042708 -0.97981,1.704446 -2.1505,3.724074 -2.60153,4.488059 l -0.82006,1.389062 h 6.10726 c 3.35899,0 6.10582,-0.0893 6.10408,-0.198438 z m -39.00458,-5.558496 2.92871,-4.694108 -2.75214,-0.132291 c -1.51367,-0.07276 -4.16152,-0.07276 -5.88412,0 l -3.13198,0.132291 2.80273,4.696355 c 1.5415,2.582994 2.87143,4.695343 2.95541,4.694107 0.084,-0.0013 1.4706,-2.114592 3.08139,-4.696354 z m 23.60003,0.02434 c 1.49392,-2.566212 2.68455,-4.694346 2.64583,-4.729189 -0.14325,-0.128908 -4.67511,-0.227571 -8.05586,-0.175382 l -3.48755,0.05383 2.93201,4.7625 c 1.61261,2.619375 3.00342,4.760603 3.09068,4.758285 0.0873,-0.0024 1.38096,-2.10384 2.87489,-4.670049 z M 36.22008,125.09523 c -0.98418,-0.60012 -1.15707,-0.84822 -1.4279,-2.04907 -0.28428,-1.26043 0.14259,-2.5758 1.09635,-3.37834 l 0.80631,-0.67846 h 31.87513 c 35.00753,0 32.96295,-0.0954 33.82875,1.57884 0.51295,0.99195 0.51295,2.46495 0,3.4569 -0.86565,1.67398 1.16126,1.57894 -33.65062,1.57785 -30.76263,-0.001 -31.72149,-0.0159 -32.52802,-0.50772 z m -0.6538,-22.90682 c -1.58175,-0.85966 -1.66555,-3.57745 -0.24138,-7.828317 1.82772,-5.45537 5.63352,-9.914504 10.58975,-12.407683 0.65485,-0.329412 1.23371,-0.637299 1.28637,-0.684197 0.0527,-0.0469 -0.32428,-0.597844 -0.83763,-1.224327 -4.00593,-4.888709 -3.76346,-11.640111 0.57735,-16.076308 7.60482,-7.771911 20.66975,-2.498485 20.66975,8.342976 0,2.991644 -0.85015,5.249862 -3.1132,8.269441 l -0.59965,0.800116 0.59965,0.177009 c 1.31624,0.38853 4.31315,2.38561 6.07718,4.049702 3.59266,3.389135 5.58897,7.247919 6.55233,12.665387 0.2372,1.333878 0.21972,1.812301 -0.0936,2.562111 -0.7637,1.82779 0.16692,1.75205 -21.382,1.74028 -16.23502,-0.009 -19.50643,-0.0718 -20.08495,-0.38619 z m 33.51251,-6.945405 c -0.30693,-1.264891 -1.81712,-3.520403 -3.18408,-4.755537 -2.9449,-2.660901 -5.90941,-3.777276 -10.03046,-3.777276 -4.33449,0 -7.50564,1.147667 -10.32594,3.737052 -1.3942,1.280054 -2.90258,3.534545 -3.20863,4.795761 l -0.17656,0.727604 H 55.70424 69.25535 Z M 57.69088,77.220916 c 3.83774,-1.743448 4.22677,-6.90509 0.70244,-9.32 -0.76979,-0.52746 -1.25714,-0.637599 -2.82137,-0.637599 -1.56424,0 -2.05159,0.110139 -2.82138,0.637599 -1.45636,0.997918 -2.1591,2.227553 -2.28749,4.002608 -0.2954,4.083812 3.61333,6.95941 7.2278,5.317392 z"
       id="path1" />
  </g>
</svg>
