<?xml version="1.0" encoding="UTF-8" standalone="no"?>
<!-- Created with Inkscape (http://www.inkscape.org/) -->

<svg
   width="137.88596mm"
   height="167.69035mm"
   viewBox="0 0 137.88596 167.69035"
   version="1.1"
   id="svg1"
   xml:space="preserve"
   xmlns="http://www.w3.org/2000/svg"
   xmlns:svg="http://www.w3.org/2000/svg"><defs
     id="defs1" /><g
     id="layer1"
     transform="translate(-43.155509,-19.045441)"><path
       style="fill:#74a02b;fill-opacity:1"
       d="m 83.637567,186.59783 c -12.387315,-0.83524 -23.086422,-5.25196 -30.390502,-12.54558 -5.155547,-5.14817 -8.075967,-10.51408 -9.584831,-17.61096 -0.77459,-3.64325 -0.645605,-10.51586 0.280564,-14.94896 1.606391,-7.68897 4.915028,-15.19555 10.351252,-23.48474 5.28058,-8.05186 6.209251,-9.5588 7.783929,-12.63088 3.125943,-6.098476 5.498719,-12.653086 7.970071,-22.016716 0.718712,-2.723109 1.589096,-5.70123 1.934187,-6.618051 1.543295,-4.100157 3.782525,-7.738667 6.565813,-10.668745 4.128107,-4.345828 8.319167,-6.451862 14.049897,-7.060175 2.74334,-0.291204 2.85724,-0.328474 2.99633,-0.980446 1.91037,-8.954646 5.254453,-15.850994 10.222163,-21.080711 3.26411,-3.436253 8.17747,-6.716814 10.05991,-6.716814 1.32128,0 2.65617,1.238728 3.09631,2.873261 0.51741,1.921529 -0.30993,3.223882 -2.44314,3.845868 -3.77281,1.100043 -7.81914,4.942388 -10.90668,10.356843 -1.90556,3.341686 -3.76238,8.621154 -4.24832,12.079186 -0.17412,1.239079 -0.17246,1.242459 0.81221,1.653881 1.50639,0.629413 4.14619,2.610226 5.55807,4.170588 2.25763,2.495053 4.49185,6.333838 6.22357,10.693185 l 0.80547,2.027664 -1.04137,2.409657 c -1.94284,4.495589 -2.76047,7.619069 -4.00791,15.310989 -1.58839,9.794156 -1.90762,10.662736 -6.83025,18.584076 -6.279503,10.10477 -8.864463,17.54104 -9.599623,27.61574 -0.52833,7.24027 0.41839,15.60817 2.41682,21.36193 2.37961,6.85124 7.269793,14.28792 11.722473,17.8268 0.82198,0.65329 1.49452,1.26726 1.49452,1.36437 0,0.33537 -3.84642,1.77494 -6.87917,2.57462 -5.577243,1.47061 -12.082323,2.0409 -18.411763,1.61412 z m 49.897173,-0.30294 c -9.1841,-0.86581 -18.30009,-4.79304 -23.79243,-10.24993 -5.45339,-5.41819 -8.87816,-12.11148 -10.504483,-20.52971 -0.55585,-2.87725 -0.78343,-12.35665 -0.3768,-15.69518 0.97864,-8.03484 3.454343,-14.49011 8.981233,-23.41809 4.83908,-7.81689 5.64326,-9.9705 7.17469,-19.213896 0.58947,-3.55786 1.31851,-7.48692 1.6201,-8.73125 2.14022,-8.830194 7.12899,-15.435912 13.26617,-17.565957 0.3572,-0.123972 0.4307,-0.338414 0.30725,-0.896371 -1.36575,-6.172738 -5.95858,-12.209826 -10.00494,-13.151082 -1.17191,-0.272607 -2.2823,-1.530222 -2.27539,-2.577083 0.0152,-2.303261 1.75583,-4.135679 3.63833,-3.830192 2.31704,0.376005 7.34878,4.368257 9.71913,7.711289 2.0403,2.877551 4.06846,7.640506 4.51149,10.594851 0.20075,1.338722 0.48204,1.563126 2.24729,1.792812 3.68451,0.479413 8.23978,2.714049 11.22494,5.506522 4.20572,3.934243 6.43815,8.263261 8.49062,16.464591 2.07458,8.289706 3.91734,13.449776 6.21601,17.406066 0.62209,1.0707 2.59086,4.0955 4.37504,6.72178 7.26063,10.68753 10.59039,17.95076 12.19615,26.60351 0.65783,3.54479 0.65603,11.18332 -0.003,14.26205 -1.4799,6.90966 -4.25748,12.04956 -9.15897,16.94859 -4.33362,4.33145 -8.88712,7.13809 -15.00122,9.24632 -7.03232,2.42485 -15.04295,3.33644 -22.85085,2.60036 z M 146.5506,63.644626 c -0.80341,-0.09903 -0.59547,-0.245781 2.54947,-1.799242 3.99131,-1.971528 7.14154,-4.246978 9.13842,-6.600783 1.54737,-1.823957 3.17749,-4.384449 3.4572,-5.430383 0.16753,-0.626451 0.14587,-0.619449 -0.40925,0.132291 -1.19748,1.621612 -4.9283,5.105936 -6.84961,6.397059 -3.60566,2.422997 -6.65428,3.676708 -11.11517,4.570979 -2.83852,0.569036 -3.47842,0.812714 -4.44304,1.691946 -0.5199,0.473876 -0.64602,0.498129 -0.85996,0.165374 -1.01939,-1.585459 -1.1588,-5.564458 -0.28128,-8.028288 2.22663,-6.251763 10.46459,-13.210532 19.90787,-16.816582 3.9492,-1.508055 10.05355,-2.929445 12.58091,-2.929445 h 0.87942 v 1.540876 c 0,1.968802 -0.67102,5.895708 -1.49994,8.777873 -3.24128,11.269963 -11.36923,18.656496 -20.32819,18.473895 -1.01864,-0.02076 -2.24573,-0.08627 -2.72685,-0.14557 z M 81.279532,49.110591 C 71.20769,46.957629 63.208819,39.362155 60.634665,29.506882 60.008678,27.110258 59.668008,23.412455 59.86334,21.134518 l 0.179137,-2.089077 2.953475,0.168685 c 6.406089,0.365878 12.75451,2.054461 18.204167,4.842029 6.171228,3.156663 10.340268,7.262512 12.145228,11.961148 1.24891,3.251158 0.91499,8.835284 -0.69235,11.578004 l -0.64548,1.101427 -2.32129,-2.317318 c -1.2767,-1.274525 -3.36428,-2.995912 -4.63907,-3.825304 -2.22779,-1.449433 -6.743855,-3.742483 -6.95494,-3.531398 -0.05604,0.05604 0.981326,1.100849 2.305253,2.321803 2.732457,2.519936 5.353947,5.499676 6.256807,7.111867 l 0.61224,1.09325 -2.06745,-0.02157 c -1.1371,-0.01186 -2.90089,-0.199726 -3.919535,-0.417473 z"
       id="path1" /></g></svg>
